<?xml version="1.0" encoding="UTF-8"?> <svg xmlns="http://www.w3.org/2000/svg" xmlns:xlink="http://www.w3.org/1999/xlink" width="2146px" height="462px" viewBox="0 0 2146 462" version="1.1"><!-- Generator: Sketch 61.2 (89653) - https://sketch.com --><title>NCEC_Full Horizontal_Full Color Inverse</title><desc>Created with Sketch.</desc><g id="NCEC_Full-Horizontal_Full-Color-Inverse" stroke="none" stroke-width="1" fill="none" fill-rule="evenodd"><path d="M532.084,160.048 L500.276,101.36 C500.725,109.759 500.836,118.608 500.836,125.104 L500.836,160.048 L485.38,160.048 L485.38,82.768 L505.876,82.768 L538.356,142.576 C537.908,134.288 537.796,124.88 537.796,118.272 L537.796,82.768 L553.14,82.768 L553.252,160.048 L532.084,160.048" id="Fill-1" fill="#FFFFFE"></path><path d="M675.444,121.408 C675.444,103.263 667.156,92.736 653.492,92.736 C639.716,92.736 631.428,103.263 631.428,121.408 C631.428,139.44 639.716,150.08 653.492,150.08 C667.156,150.08 675.444,139.44 675.444,121.408 Z M691.684,121.408 C691.684,145.599 677.236,161.616 653.492,161.616 C629.636,161.616 615.3,145.599 615.3,121.408 C615.3,97.104 629.636,81.2 653.492,81.2 C677.236,81.2 691.684,97.104 691.684,121.408 L691.684,121.408 Z" id="Fill-2" fill="#FFFFFE"></path><path d="M780.388,117.376 C783.075,117.376 784.979,117.376 786.659,117.263 C792.819,116.704 797.747,113.679 797.747,106.175 C797.747,98.672 793.604,95.984 787.556,95.2 C785.764,94.976 783.859,94.864 781.06,94.864 L769.747,94.864 L769.747,117.376 L780.388,117.376 Z M815.892,160.048 L798.979,160.048 C797.075,154.784 795.955,150.08 795.171,142.8 C794.163,134.511 791.027,129.471 784.755,129.024 C782.627,128.912 780.724,128.912 778.707,128.912 L769.747,128.912 L769.747,160.048 L754.291,160.048 L754.291,82.768 L782.516,82.768 C786.995,82.768 789.907,82.88 793.715,83.328 C804.915,84.672 813.987,90.496 813.987,103.824 C813.987,113.792 808.051,120.064 798.867,122.639 C806.483,125.551 809.396,131.935 810.291,140.559 C811.299,149.967 812.755,155.679 815.892,160.048 L815.892,160.048 Z" id="Fill-3" fill="#FFFFFE"></path><polyline id="Fill-4" fill="#FFFFFE" points="910.866 94.864 910.866 160.048 895.41 160.048 895.41 94.864 869.203 94.864 869.203 82.768 937.074 82.768 937.074 94.864 910.866 94.864"></polyline><polyline id="Fill-5" fill="#FFFFFE" points="1062.4 160.048 1047.06 160.048 1047.06 128.351 1010.88 128.351 1010.88 160.048 995.425 160.048 995.425 82.768 1010.88 82.768 1010.88 116.032 1047.06 116.032 1047.06 82.768 1062.4 82.768 1062.4 160.048"></polyline><path d="M1266.01,107.856 L1266.13,108.975 L1250.67,108.975 L1250.45,107.856 C1248.54,98.336 1242.72,92.736 1232.42,92.736 C1219.98,92.736 1211.58,103.376 1211.58,120.96 C1211.58,140.223 1220.43,150.08 1232.19,150.08 C1242.27,150.08 1248.09,144.032 1250.11,134.4 L1250.33,133.28 L1265.68,133.28 L1265.57,134.4 C1263.89,150.864 1251.34,161.616 1231.52,161.616 C1210.02,161.616 1195.23,146.496 1195.23,121.856 C1195.23,96.544 1211.25,81.2 1232.64,81.2 C1253.58,81.2 1264.45,92.624 1266.01,107.856" id="Fill-6" fill="#FFFFFE"></path><path d="M1346.21,124.544 L1364.35,124.544 L1355.39,95.984 L1346.21,124.544 Z M1342.29,136.752 L1334.56,160.048 L1318.09,160.048 L1345.98,82.768 L1365.36,82.768 L1392.69,160.048 L1375.89,160.048 L1368.27,136.752 L1342.29,136.752 L1342.29,136.752 Z" id="Fill-7" fill="#FFFFFE"></path><path d="M1477.25,117.376 C1479.93,117.376 1481.84,117.376 1483.52,117.263 C1489.68,116.704 1494.61,113.679 1494.61,106.175 C1494.61,98.672 1490.46,95.984 1484.41,95.2 C1482.62,94.976 1480.72,94.864 1477.92,94.864 L1466.61,94.864 L1466.61,117.376 L1477.25,117.376 Z M1512.75,160.048 L1495.84,160.048 C1493.93,154.784 1492.81,150.08 1492.03,142.8 C1491.02,134.511 1487.89,129.471 1481.61,129.024 C1479.49,128.912 1477.58,128.912 1475.57,128.912 L1466.61,128.912 L1466.61,160.048 L1451.15,160.048 L1451.15,82.768 L1479.37,82.768 C1483.85,82.768 1486.77,82.88 1490.57,83.328 C1501.77,84.672 1510.85,90.496 1510.85,103.824 C1510.85,113.792 1504.91,120.064 1495.73,122.639 C1503.34,125.551 1506.25,131.935 1507.15,140.559 C1508.16,149.967 1509.61,155.679 1512.75,160.048 L1512.75,160.048 Z" id="Fill-8" fill="#FFFFFE"></path><path d="M1629.34,121.408 C1629.34,103.263 1621.05,92.736 1607.39,92.736 C1593.61,92.736 1585.33,103.263 1585.33,121.408 C1585.33,139.44 1593.61,150.08 1607.39,150.08 C1621.05,150.08 1629.34,139.44 1629.34,121.408 Z M1645.58,121.408 C1645.58,145.599 1631.13,161.616 1607.39,161.616 C1583.53,161.616 1569.2,145.599 1569.2,121.408 C1569.2,97.104 1583.53,81.2 1607.39,81.2 C1631.13,81.2 1645.58,97.104 1645.58,121.408 L1645.58,121.408 Z" id="Fill-9" fill="#FFFFFE"></path><polyline id="Fill-10" fill="#FFFFFE" points="1763.96 160.048 1708.19 160.048 1708.19 82.768 1723.64 82.768 1723.64 147.168 1763.96 147.168 1763.96 160.048"></polyline><polygon id="Fill-11" fill="#FFFFFE" points="1824.89 160.048 1840.35 160.048 1840.35 82.768 1824.89 82.768"></polygon><path d="M1953.35,160.048 L1921.55,101.36 C1921.99,109.759 1922.11,118.608 1922.11,125.104 L1922.11,160.048 L1906.65,160.048 L1906.65,82.768 L1927.15,82.768 L1959.63,142.576 C1959.18,134.288 1959.07,124.88 1959.07,118.272 L1959.07,82.768 L1974.41,82.768 L1974.52,160.048 L1953.35,160.048" id="Fill-12" fill="#FFFFFE"></path><path d="M2060.65,124.544 L2078.79,124.544 L2069.83,95.984 L2060.65,124.544 Z M2056.73,136.752 L2049,160.048 L2032.54,160.048 L2060.43,82.768 L2079.8,82.768 L2107.13,160.048 L2090.33,160.048 L2082.71,136.752 L2056.73,136.752 L2056.73,136.752 Z" id="Fill-13" fill="#FFFFFE"></path><path d="M471.004,356.021 C480.591,354.384 485.502,352.28 485.502,343.628 L485.502,234.425 C485.502,225.772 480.591,223.668 471.004,222.03 L471.004,216.419 L579.038,216.419 C581.143,216.419 582.313,217.12 582.546,219.224 C583.247,225.304 583.949,232.319 587.223,245.648 L582.313,245.648 C576.466,231.618 568.048,224.837 552.614,224.837 L524.086,224.837 C514.498,224.837 509.588,226.941 509.588,235.359 L509.588,273.008 C509.588,281.426 514.498,283.764 524.086,283.764 L545.131,283.764 C560.331,283.764 563.371,278.152 565.241,267.395 L568.983,267.395 L568.983,308.551 L565.241,308.551 C563.371,298.029 560.331,291.949 545.131,291.949 L524.086,291.949 C514.498,291.949 509.588,294.288 509.588,302.706 L509.588,342.692 C509.588,350.877 514.265,353.449 530.165,353.216 L556.59,352.981 C573.426,352.748 578.57,347.837 582.546,341.29 L588.158,332.637 L593.068,332.637 C589.562,339.419 587.457,346.434 586.054,358.36 C585.819,360.465 584.417,361.633 582.313,361.633 L471.004,361.633 L471.004,356.021" id="Fill-14" fill="#FFFFFE"></path><path d="M686.838,324.921 L686.838,294.989 C686.838,271.605 668.364,261.316 653.633,261.316 C635.627,261.316 625.338,277.217 625.338,300.835 C625.338,327.961 639.603,349.24 661.35,349.24 C672.34,349.24 686.838,343.628 686.838,324.921 Z M722.85,351.579 L722.85,357.19 C715.834,361.633 709.521,362.802 704.143,362.802 C693.151,362.802 686.838,357.892 686.838,344.797 C676.783,357.19 663.922,363.037 649.892,363.037 C624.402,363.037 603.591,342.692 603.591,310.188 C603.591,274.177 628.144,254.067 654.568,254.067 C677.484,254.067 686.838,268.565 686.838,253.833 L686.838,232.787 C686.838,222.498 684.032,218.523 671.639,219.692 L671.639,214.314 L699.231,208.467 C704.61,207.299 707.884,209.871 707.884,215.483 L707.884,343.628 C707.884,351.579 711.859,354.618 722.85,351.579 L722.85,351.579 Z" id="Fill-15" fill="#FFFFFE"></path><path d="M745.063,324.219 L745.063,279.088 C745.063,268.565 742.257,264.59 729.863,265.758 L729.863,260.381 L757.457,254.534 C762.835,253.365 766.108,255.937 766.108,261.55 L766.108,319.075 C766.108,337.08 774.995,349.941 791.363,349.941 C807.732,349.941 818.489,336.379 818.489,319.075 L818.489,279.088 C818.489,268.565 815.917,264.59 803.289,265.758 L803.289,260.381 L830.883,254.534 C836.261,253.365 839.535,255.937 839.535,261.55 L839.535,343.862 C839.535,351.812 843.51,354.852 851.227,352.981 L851.227,358.36 C847.018,361.4 840.704,362.802 835.325,362.802 C825.271,362.802 819.658,357.19 818.255,348.772 C818.021,346.901 817.554,345.499 815.917,345.499 C814.748,345.499 814.28,346.2 813.11,347.369 C809.604,351.344 799.08,363.037 779.204,363.037 C761.666,363.037 745.063,352.748 745.063,324.219" id="Fill-16" fill="#FFFFFE"></path><path d="M862.917,309.253 C862.917,273.943 891.445,254.067 920.909,254.067 C945.463,254.067 960.429,269.033 960.429,282.128 C960.429,288.675 956.688,294.053 949.438,294.053 C943.124,294.053 937.979,289.844 937.979,282.829 C937.979,272.774 932.602,260.614 915.999,260.614 C896.824,260.614 884.664,276.282 884.664,300.133 C884.664,330.533 904.774,349.24 929.795,349.24 C939.616,349.24 949.438,346.668 957.622,336.379 L961.832,340.12 C957.389,348.304 943.124,363.037 919.039,363.037 C889.809,363.037 862.917,342.692 862.917,309.253" id="Fill-17" fill="#FFFFFE"></path><path d="M1048.82,326.324 L1048.82,313.93 C1048.82,308.551 1047.18,305.511 1039.46,306.447 C1006.96,309.955 999.477,321.179 999.477,331.702 C999.477,341.757 1005.79,351.111 1019.82,351.111 C1035.49,351.111 1048.82,339.419 1048.82,326.324 Z M977.028,337.314 C977.028,319.075 991.526,305.746 1042.5,299.666 C1046.71,299.198 1048.82,297.795 1048.82,292.884 L1048.82,288.208 C1048.82,272.072 1041.33,260.848 1024.03,260.848 C1011.64,260.848 1006.49,267.395 1006.49,277.919 C1006.49,286.571 1001.58,290.78 995.034,290.78 C988.019,290.78 984.511,285.869 984.511,279.555 C984.511,263.421 1009.06,254.067 1032.45,254.067 C1059.34,254.067 1069.86,265.758 1069.86,293.586 L1069.86,343.862 C1069.86,351.812 1073.84,354.852 1081.55,352.981 L1081.55,358.36 C1077.35,361.4 1071.03,362.802 1065.89,362.802 C1055.6,362.802 1049.29,357.19 1048.82,346.2 C1048.82,343.862 1046.95,343.862 1045.08,345.967 C1037.13,356.021 1022.86,363.037 1007.43,363.037 C991.76,363.037 977.028,355.553 977.028,337.314 L977.028,337.314 Z" id="Fill-18" fill="#FFFFFE"></path><path d="M1099.09,330.299 L1099.09,268.565 C1099.09,264.59 1097.22,263.421 1093.71,263.421 L1083.89,263.421 L1083.89,258.276 C1100.5,255.469 1109.15,247.987 1112.66,231.618 L1120.14,231.618 L1120.14,250.092 C1120.14,254.768 1121.77,256.172 1125.28,256.172 L1146.09,256.172 L1146.09,263.421 L1125.28,263.421 C1121.77,263.421 1120.14,264.823 1120.14,268.565 L1120.14,333.806 C1120.14,345.031 1123.18,354.384 1133.47,354.384 C1139.08,354.384 1143.29,352.513 1145.39,350.877 L1148.2,356.021 C1144.92,359.061 1138.38,362.802 1127.15,362.802 C1110.08,362.802 1099.09,353.917 1099.09,330.299" id="Fill-19" fill="#FFFFFE"></path><path d="M1170.41,218.055 C1170.41,211.04 1176.26,205.194 1183.27,205.194 C1190.05,205.194 1196.13,211.04 1196.13,218.055 C1196.13,225.304 1190.05,231.15 1183.27,231.15 C1176.26,231.15 1170.41,225.304 1170.41,218.055 Z M1160.12,356.021 C1171.11,354.852 1175.09,352.046 1175.09,343.16 L1175.09,279.088 C1175.09,268.565 1172.28,264.59 1159.89,265.758 L1159.89,260.381 L1187.48,254.534 C1192.86,253.365 1196.13,255.937 1196.13,261.55 L1196.13,343.16 C1196.13,352.046 1200.11,354.852 1211.1,356.021 L1211.1,361.633 L1160.12,361.633 L1160.12,356.021 L1160.12,356.021 Z" id="Fill-20" fill="#FFFFFE"></path><path d="M1310.72,316.268 C1310.72,286.337 1294.58,261.082 1272.83,261.082 C1256.7,261.082 1245.01,273.71 1245.01,300.835 C1245.01,330.533 1260.91,356.021 1282.89,356.021 C1298.79,356.021 1310.72,343.394 1310.72,316.268 Z M1222.79,308.786 C1222.79,274.411 1248.98,254.067 1277.98,254.067 C1306.74,254.067 1332.93,274.177 1332.93,308.318 C1332.93,342.692 1306.51,363.037 1277.51,363.037 C1248.75,363.037 1222.79,342.926 1222.79,308.786 L1222.79,308.786 Z" id="Fill-21" fill="#FFFFFE"></path><path d="M1430.91,345.967 L1430.91,298.029 C1430.91,280.257 1422.26,267.162 1405.65,267.162 C1389.28,267.162 1378.53,280.724 1378.53,298.029 L1378.53,343.16 C1378.53,352.046 1382.5,354.852 1393.49,356.021 L1393.49,361.633 L1342.52,361.633 L1342.52,356.021 C1353.51,354.852 1357.48,352.046 1357.48,343.16 L1357.48,279.088 C1357.48,268.565 1354.68,264.59 1342.28,265.758 L1342.28,260.381 L1369.88,254.534 C1375.25,253.365 1378.53,255.937 1378.53,261.55 C1378.53,270.435 1380.87,273.242 1384.14,269.967 C1387.88,265.993 1397.94,254.067 1417.81,254.067 C1435.35,254.067 1451.95,264.122 1451.95,292.884 L1451.95,343.862 C1451.95,351.812 1455.93,354.852 1463.65,352.981 L1463.65,358.36 C1459.2,361.166 1453.59,362.802 1447.51,362.802 C1437.22,362.802 1430.91,357.892 1430.91,345.967" id="Fill-22" fill="#FFFFFE"></path><path d="M1517.42,289.143 C1517.42,240.504 1556.24,212.676 1596.7,212.676 C1631.07,212.676 1651.65,233.255 1651.65,250.325 C1651.65,258.744 1646.5,265.758 1636.92,265.758 C1628.97,265.758 1623.12,260.381 1623.12,250.325 C1623.12,237.698 1613.77,220.393 1590.15,220.393 C1562.32,220.393 1542.45,241.907 1542.45,277.217 C1542.45,320.945 1572.14,348.539 1607.92,348.539 C1624.29,348.539 1637.15,342.459 1649.31,328.896 L1653.05,331.935 C1646.97,343.16 1627.8,363.972 1593.89,363.972 C1554.37,363.972 1517.42,336.145 1517.42,289.143" id="Fill-23" fill="#FFFFFE"></path><path d="M1755.01,316.268 C1755.01,286.337 1738.87,261.082 1717.12,261.082 C1700.99,261.082 1689.3,273.71 1689.3,300.835 C1689.3,330.533 1705.2,356.021 1727.18,356.021 C1743.08,356.021 1755.01,343.394 1755.01,316.268 Z M1667.08,308.786 C1667.08,274.411 1693.27,254.067 1722.27,254.067 C1751.03,254.067 1777.22,274.177 1777.22,308.318 C1777.22,342.692 1750.8,363.037 1721.8,363.037 C1693.04,363.037 1667.08,342.926 1667.08,308.786 L1667.08,308.786 Z" id="Fill-24" fill="#FFFFFE"></path><path d="M1786.81,356.021 C1797.8,354.852 1801.77,352.046 1801.77,343.16 L1801.77,279.088 C1801.77,268.565 1798.96,264.59 1786.57,265.758 L1786.57,260.381 L1814.17,254.534 C1819.54,253.365 1822.82,255.937 1822.82,261.55 C1822.82,270.435 1824.69,272.306 1827.96,269.033 C1831.7,265.057 1842.46,254.067 1858.59,254.067 C1875.9,254.067 1880.81,265.758 1880.81,273.242 C1880.81,280.959 1875.67,285.869 1868.88,285.869 C1862.34,285.869 1858.13,281.893 1858.13,276.983 C1858.13,270.903 1853.92,265.758 1846.67,265.758 C1833.81,265.758 1822.82,279.321 1822.82,301.537 L1822.82,343.16 C1822.82,352.046 1826.79,354.852 1838.48,356.021 L1838.48,361.633 L1786.81,361.633 L1786.81,356.021" id="Fill-25" fill="#FFFFFE"></path><path d="M1987.91,316.503 C1987.91,289.377 1973.88,267.863 1952.83,267.863 C1941.14,267.863 1926.41,273.71 1926.41,294.989 L1926.41,322.114 C1926.41,345.967 1944.88,355.788 1959.38,355.788 C1977.38,355.788 1987.91,340.12 1987.91,316.503 Z M2009.65,306.681 C2009.65,343.16 1984.87,363.037 1958.91,363.037 C1935.76,363.037 1926.41,347.603 1926.41,361.166 L1926.41,387.59 C1926.41,396.476 1930.38,399.282 1941.37,400.451 L1941.37,406.063 L1890.39,406.063 L1890.39,400.451 C1901.38,399.282 1905.36,396.476 1905.36,387.59 L1905.36,279.088 C1905.36,268.565 1902.55,264.59 1890.16,265.758 L1890.16,260.381 L1917.75,254.534 C1923.13,253.365 1926.41,255.937 1926.41,261.55 L1926.41,265.291 C1926.41,267.863 1928.28,269.033 1930.85,266.461 C1935.29,261.55 1947.69,254.067 1963.35,254.067 C1988.84,254.067 2009.65,274.411 2009.65,306.681 L2009.65,306.681 Z" id="Fill-26" fill="#FFFFFE"></path><path d="M2022.51,336.379 C2022.51,328.896 2026.25,324.686 2032.33,324.686 C2038.41,324.686 2041.92,329.363 2041.92,333.105 C2041.92,349.708 2055.95,356.489 2068.34,356.489 C2081.91,356.489 2088.92,349.473 2088.92,338.717 C2088.92,325.622 2075.36,321.647 2061.1,317.204 C2044.73,312.293 2025.55,303.875 2025.55,283.999 C2025.55,265.758 2042.62,254.067 2066.47,254.067 C2086.35,254.067 2105.53,262.251 2105.53,277.919 C2105.53,283.999 2102.49,288.675 2095.24,288.675 C2089.16,288.675 2086.58,285.635 2086.58,280.491 C2086.58,268.799 2076.29,260.614 2063.43,260.614 C2051.51,260.614 2045.66,266.461 2045.66,276.282 C2045.66,289.377 2055.72,293.586 2069.51,298.029 C2086.35,303.407 2109.73,309.72 2109.73,331.234 C2109.73,350.643 2089.62,363.037 2063.43,363.037 C2042.86,363.037 2022.51,354.384 2022.51,336.379" id="Fill-27" fill="#FFFFFE"></path><path d="M297.564,278.189 C286.484,286.007 270.772,286.754 252.547,280.78 L307.902,190.509 C311.318,201.216 313.653,211.818 314.709,222.035 C317.46,248.545 311.369,268.478 297.564,278.189 Z M284.143,96.298 L342.383,84.149 L311.229,134.961 C303.405,121.483 294.372,108.436 284.143,96.298 Z M325.155,162.368 L396.452,46.098 L262.277,74.096 C241.64,57.682 218.31,44.093 192.177,38.428 C178.039,35.429 162.608,35.112 148.97,40.677 C135.229,46.05 125.096,57.668 120.483,70.515 C127.162,58.477 138.383,49.614 150.966,46.918 C163.53,44.024 176.631,46.423 188.536,51.02 C205.156,57.511 219.966,67.942 233.105,80.183 L108.411,106.204 L36.001,173.521 L105.878,137.366 C111.827,157.043 120.828,175.124 131.448,191.748 C145.298,213.204 162.026,232.388 180.956,248.577 C165.154,229.343 152.411,207.985 143.033,185.624 C135.331,167.156 130.104,147.808 128.313,128.805 L254.428,102.497 C271.067,119.952 285.122,139.929 295.504,160.602 L223.28,278.391 L36.001,426.001 L234.424,301.883 C248.651,307.843 262.303,311.008 274.867,311.008 C289.03,311.008 301.851,307.22 312.648,299.62 C334.54,284.216 344.532,255.71 340.784,219.348 C338.877,200.946 333.395,181.544 325.155,162.368 L325.155,162.368 Z" id="Fill-28" fill="#E16050"></path><path d="M342.383,84.149 L311.229,134.961 C303.405,121.483 294.372,108.436 284.143,96.298 L342.383,84.149 Z M297.564,278.189 C291.353,282.572 283.683,284.732 274.938,284.732 C268.079,284.732 260.557,283.405 252.547,280.78 L307.902,190.509 C311.318,201.216 313.653,211.818 314.709,222.035 C317.46,248.545 311.369,268.478 297.564,278.189 Z M192.177,38.428 C185.92,37.102 179.414,36.299 172.921,36.299 C164.739,36.299 156.576,37.573 148.97,40.677 C135.229,46.05 125.096,57.668 120.483,70.515 C127.162,58.477 138.383,49.614 150.966,46.918 C154.728,46.05 158.54,45.659 162.359,45.659 C171.271,45.659 180.194,47.8 188.536,51.02 C205.156,57.511 219.966,67.942 233.105,80.183 L108.411,106.204 L36.001,173.521 L105.878,137.366 C111.827,157.043 120.828,175.124 131.448,191.748 C145.298,213.204 162.026,232.388 180.956,248.577 C165.154,229.343 152.411,207.985 143.033,185.624 C135.331,167.156 130.104,147.808 128.313,128.805 L254.428,102.497 C271.067,119.952 285.122,139.929 295.504,160.602 L223.28,278.391 L36.001,426.001 L234.424,301.883 C248.651,307.843 262.303,311.008 274.867,311.008 C289.03,311.008 301.851,307.22 312.648,299.62 C334.54,284.216 344.532,255.71 340.784,219.348 C338.877,200.946 333.395,181.544 325.155,162.368 L396.452,46.098 L262.277,74.096 C241.64,57.682 218.31,44.093 192.177,38.428 L192.177,38.428 Z" id="Fill-29" fill="#E16050"></path><path d="M36.001,299.761 L129.638,247.882 L129.164,247.211 C124.321,241.742 119.658,236.085 115.199,230.228 L36.001,299.761" id="Fill-30" fill="#E16050"></path></g></svg> 